<?xml version="1.0" encoding="UTF-8" standalone="no"?>
<svg
   xmlns:dc="http://purl.org/dc/elements/1.1/"
   xmlns:cc="http://creativecommons.org/ns#"
   xmlns:rdf="http://www.w3.org/1999/02/22-rdf-syntax-ns#"
   xmlns:svg="http://www.w3.org/2000/svg"
   xmlns="http://www.w3.org/2000/svg"
   xmlns:sodipodi="http://sodipodi.sourceforge.net/DTD/sodipodi-0.dtd"
   xmlns:inkscape="http://www.inkscape.org/namespaces/inkscape"
   viewBox="0 0 576 512"
   version="1.1"
   id="svg4"
   sodipodi:docname="leaf.svg"
   inkscape:version="0.92.2 (5c3e80d, 2017-08-06)">
  <metadata
     id="metadata10">
    <rdf:RDF>
      <cc:Work
         rdf:about="">
        <dc:format>image/svg+xml</dc:format>
        <dc:type
           rdf:resource="http://purl.org/dc/dcmitype/StillImage" />
      </cc:Work>
    </rdf:RDF>
  </metadata>
  <defs
     id="defs8" />
  <sodipodi:namedview
     pagecolor="#ffffff"
     bordercolor="#666666"
     borderopacity="1"
     objecttolerance="10"
     gridtolerance="10"
     guidetolerance="10"
     inkscape:pageopacity="0"
     inkscape:pageshadow="2"
     inkscape:window-width="716"
     inkscape:window-height="480"
     id="namedview6"
     showgrid="false"
     inkscape:zoom="0.4609375"
     inkscape:cx="288"
     inkscape:cy="256"
     inkscape:window-x="0"
     inkscape:window-y="0"
     inkscape:window-maximized="0"
     inkscape:current-layer="svg4" />
  <path
     d="M395.4 420.8c-43.4 21.6-91.9 34.4-140.8 34.4-82.2 0-151.1-40.1-151.1-40.1-16.1 0-35.4 64.9-63.3 64.9-27 0-40.2-24-40.2-38.5 0-33.1 63.6-58.9 63.6-77.3 0 0-12.5-21.2-12.5-59.2 0-101.2 81.3-173.4 172.6-203.3 65.9-21.6 206 3.5 250.7-38.5C492.1 47 500.8 32 527.8 32c36.3 0 48.2 93.2 48.2 120.3 0 110.9-54.5 206.5-180.6 268.5zm-254.3-75.6c63.5-89.9 144.5-128.8 257.7-120 8.8.7 16.5-5.9 17.2-14.7.7-8.8-5.9-16.5-14.7-17.2-124-9.6-215.9 33.9-286.3 133.5-5.1 7.2-3.4 17.2 3.8 22.3 7.2 5.1 17.2 3.4 22.3-3.9z"
     id="path2"
     style="fill:#ffffff" />
</svg>
