<?xml version="1.0" encoding="UTF-8" standalone="no"?>
<svg
   xmlns:dc="http://purl.org/dc/elements/1.1/"
   xmlns:cc="http://creativecommons.org/ns#"
   xmlns:rdf="http://www.w3.org/1999/02/22-rdf-syntax-ns#"
   xmlns:svg="http://www.w3.org/2000/svg"
   xmlns="http://www.w3.org/2000/svg"
   xmlns:sodipodi="http://sodipodi.sourceforge.net/DTD/sodipodi-0.dtd"
   xmlns:inkscape="http://www.inkscape.org/namespaces/inkscape"
   viewBox="0 0 640 512"
   version="1.1"
   id="svg4"
   sodipodi:docname="logo.svg"
   inkscape:version="0.92.2 (5c3e80d, 2017-08-06)">
  <metadata
     id="metadata10">
    <rdf:RDF>
      <cc:Work
         rdf:about="">
        <dc:format>image/svg+xml</dc:format>
        <dc:type
           rdf:resource="http://purl.org/dc/dcmitype/StillImage" />
      </cc:Work>
    </rdf:RDF>
  </metadata>
  <defs
     id="defs8" />
  <sodipodi:namedview
     pagecolor="#ffffff"
     bordercolor="#666666"
     borderopacity="1"
     objecttolerance="10"
     gridtolerance="10"
     guidetolerance="10"
     inkscape:pageopacity="0"
     inkscape:pageshadow="2"
     inkscape:window-width="716"
     inkscape:window-height="480"
     id="namedview6"
     showgrid="false"
     inkscape:zoom="0.44375"
     inkscape:cx="320"
     inkscape:cy="256"
     inkscape:window-x="0"
     inkscape:window-y="0"
     inkscape:window-maximized="0"
     inkscape:current-layer="svg4" />
  <path
     d="M640 24.9c-80.8 53.6-89.4 92.5-96.4 104.4-6.7 12.2-11.7 60.3-23.3 83.6-11.7 23.6-54.2 42.2-66.1 50-11.7 7.8-28.3 38.1-41.9 64.2-108.1-4.4-167.4 38.8-259.2 93.6 29.4-9.7 43.3-16.7 43.3-16.7 94.2-36 139.3-68.3 281.1-49.2 1.1 0 1.9.6 2.8.8 3.9 2.2 5.3 6.9 3.1 10.8l-53.9 95.8c-2.5 4.7-7.8 7.2-13.1 6.1-126.8-23.8-226.9 17.3-318.9 18.6C24.1 488 0 453.4 0 451.8c0-1.1.6-1.7 1.7-1.7 0 0 38.3 0 103.1-15.3C178.4 294.5 244 245.4 315.4 245.4c0 0 71.7 0 90.6 61.9 22.8-39.7 28.3-49.2 28.3-49.2 5.3-9.4 35-77.2 86.4-141.4 51.5-64 90.4-79.9 119.3-91.8z"
     id="path2"
     style="fill:#ffffff" />
</svg>
